<svg viewBox="0 0 26.972 24" fill="#ffd075" width="26.972" height="24"><path d="M22.829 14.533a.251.251 0 0 1-.251-.251c0-5.013-4.078-9.091-9.091-9.091s-9.092 4.077-9.092 9.091a.251.251 0 0 1-.502 0 9.594 9.594 0 0 1 19.188 0 .251.251 0 0 1-.252.251Z"/><path d="M18.409 14.533H8.563v-.251a4.923 4.923 0 1 1 9.845 0Zm-9.335-.502h8.825a4.42 4.42 0 0 0-8.826 0Z"/><path d="M13.486 23.875a.251.251 0 0 1-.251-.251v-9.342a.251.251 0 0 1 .502 0v9.342a.251.251 0 0 1-.251.251Z"/><path d="M14.693 19.047a.251.251 0 0 1-.242-.186l-1.207-4.514a.251.251 0 1 1 .487-.13l1.207 4.512a.251.251 0 0 1-.245.318Z"/><path d="M18.157 22.624a.251.251 0 0 1-.218-.126l-4.669-8.091a.251.251 0 1 1 .435-.251l4.672 8.091a.251.251 0 0 1-.217.377Z"/><path d="M16.789 17.836a.251.251 0 0 1-.177-.073l-3.303-3.303a.251.251 0 0 1 .355-.355l3.303 3.303a.251.251 0 0 1-.178.429Z"/><path d="M21.577 19.204a.248.248 0 0 1-.126-.034l-8.09-4.671a.251.251 0 1 1 .251-.435l8.091 4.671a.251.251 0 0 1-.126.469Z"/><path d="M18 15.742a.251.251 0 0 1-.065-.009l-4.514-1.207a.251.251 0 1 1 .13-.485l4.512 1.209a.251.251 0 0 1-.065.494Z"/><path d="M12.277 19.047a.251.251 0 0 1-.243-.316l1.209-4.512a.251.251 0 0 1 .487.129l-1.211 4.512a.251.251 0 0 1-.242.188Z"/><path d="M8.815 22.624a.251.251 0 0 1-.217-.377l4.672-8.091a.251.251 0 1 1 .435.251l-4.673 8.091a.251.251 0 0 1-.218.126Z"/><path d="M10.183 17.836a.251.251 0 0 1-.178-.429l3.303-3.303a.251.251 0 0 1 .355.355l-3.303 3.303a.251.251 0 0 1-.177.073Z"/><path d="M5.395 19.204a.251.251 0 0 1-.126-.469l8.092-4.67a.251.251 0 0 1 .251.435l-8.091 4.672a.248.248 0 0 1-.125.032Z"/><path d="M8.974 15.742a.251.251 0 0 1-.065-.494l4.512-1.209a.251.251 0 0 1 .13.487l-4.512 1.207a.251.251 0 0 1-.065.009Zm4.513-8.394a.251.251 0 0 1-.251-.251V.377a.251.251 0 0 1 .502 0v6.719a.251.251 0 0 1-.251.251Zm.376 1.125a.377.377 0 0 1-.377.377.377.377 0 0 1-.377-.377.377.377 0 0 1 .754 0z"/></svg>