<svg fill="#ffd075" viewBox="0 0 24 21.356" width="24" height="21.356"><path d="M19.528 15.942a.14.14 0 0 1-.14-.14c0-2.088-2.014-3.986-3.702-5.207A24.034 24.034 0 0 0 12 8.426c-.329.152-2.018.959-3.688 2.167-1.689 1.223-3.702 3.12-3.702 5.207a.14.14 0 0 1-.279 0c0-.98.406-1.995 1.206-3.017.633-.807 1.513-1.621 2.616-2.421a24.21 24.21 0 0 1 3.788-2.219l.057-.026.057.026c.019.009 1.917.864 3.789 2.219 1.103.799 1.983 1.613 2.616 2.421.8 1.021 1.206 2.036 1.206 3.017a.14.14 0 0 1-.138.142Z"/><path d="m8.236 15.45-.057-.025c-.019-.009-1.917-.864-3.789-2.219-1.103-.799-1.983-1.613-2.616-2.421C.974 9.764.568 8.749.568 7.768a.14.14 0 1 1 .279 0c0 2.089 2.015 3.986 3.706 5.21a24.19 24.19 0 0 0 3.682 2.164 24.132 24.132 0 0 0 3.686-2.167c1.689-1.223 3.703-3.12 3.703-5.207a.14.14 0 0 1 .279 0c0 .98-.406 1.995-1.206 3.017-.633.807-1.513 1.621-2.616 2.421a24.21 24.21 0 0 1-3.788 2.219Z"/><path d="m15.764 15.45-.057-.025c-.019-.009-1.917-.864-3.788-2.219-1.103-.799-1.983-1.613-2.616-2.421-.8-1.021-1.206-2.036-1.206-3.017a.14.14 0 0 1 .279 0c0 2.086 2.014 3.986 3.703 5.207a24.012 24.012 0 0 0 3.688 2.167 24.132 24.132 0 0 0 3.686-2.167c1.689-1.223 3.702-3.12 3.702-5.207a.14.14 0 0 1 .279 0c0 .98-.406 1.995-1.206 3.017-.633.807-1.512 1.621-2.616 2.421a24.192 24.192 0 0 1-3.789 2.219ZM12.75 6.058a.75.75 0 0 1-.75.75.75.75 0 0 1-.75-.75.75.75 0 0 1 1.5 0zm-4.139 9.614a.375.375 0 0 1-.375.376.375.375 0 0 1-.375-.376.375.375 0 0 1 .75 0zM1.083 7.394a.375.375 0 0 1-.375.376.375.375 0 0 1-.375-.376.375.375 0 0 1 .75 0z"/><path d="M16.139 15.672a.375.375 0 0 1-.375.376.375.375 0 0 1-.375-.376.375.375 0 0 1 .75 0zm7.528-8.278a.375.375 0 0 1-.375.376.375.375 0 0 1-.375-.376.375.375 0 0 1 .75 0z"/></svg>