<svg fill="#ffd075" viewBox="0 0 24 21.356" width="24" height="21.356"><path d="m3.599 9.837-.64 2.386 1.513-1.513-.873-.873z"/><path d="m2.689 12.691.837-3.124 1.143 1.143Zm.981-2.584-.442 1.649 1.046-1.046Z"/><path d="m4.472 10.908-.971-.972a.14.14 0 0 1 .197-.197l.775.775 3.46-3.461h5.034a.14.14 0 0 1 0 .279H8.05Zm.808.61-.64 2.386 1.513-1.513-.873-.873z"/><path d="m4.37 14.371.837-3.122 1.143 1.144Zm.981-2.584-.442 1.649 1.046-1.046Z"/><path d="m6.153 12.589-.972-.972.197-.197.775.775 3.461-3.461h5.034v.279H9.73L6.153 12.59zm5.831 5.633-2.386.64 1.513-1.513.873.873z"/><path d="m9.13 19.132 1.98-1.98 1.144 1.144Zm1.98-1.585-1.046 1.046 1.649-.442Z"/><path d="m11.885 18.321-.972-.973 3.576-3.576V8.853h.279v5.034l-3.461 3.461.775.775-.197.198zm6.962-5.47a.14.14 0 0 1-.099-.238c2.302-2.302 2.302-6.048 0-8.35s-6.048-2.302-8.35 0a.14.14 0 0 1-.197-.197c2.411-2.411 6.332-2.411 8.744 0s2.411 6.332 0 8.744a.138.138 0 0 1-.098.041Z"/><path d="M11.954 11.721a.14.14 0 0 1-.099-.238l9.217-9.218a.14.14 0 1 1 .197.197l-9.216 9.218a.139.139 0 0 1-.099.041Z"/><path d="M17.074 6.972a.512.512 0 0 1-.511.512.512.512 0 0 1-.512-.512.512.512 0 0 1 1.023 0z"/></svg>