<svg viewBox="0 0 26.972 24" fill="#ffd075" width="26.972" height="24"><path d="M13.486 13.484a.153.153 0 0 1-.078-.021.157.157 0 0 1-.057-.214l3.474-6.017a.157.157 0 0 1 .272.157l-3.474 6.017a.157.157 0 0 1-.136.079Zm3.97 4.963a.155.155 0 0 1-.111-.046l-7.83-7.828-7.828 7.828a.157.157 0 0 1-.222-.222l8.051-8.052 8.052 8.052a.157.157 0 0 1 0 .222.155.155 0 0 1-.112.046Z"/><path d="M25.398 18.447a.155.155 0 0 1-.111-.046l-7.831-7.83-7.828 7.83a.157.157 0 0 1-.222-.222l8.05-8.053 8.053 8.052a.157.157 0 0 1-.111.268Zm-11.912-4.963a.157.157 0 0 1-.157-.157V6.378a.157.157 0 0 1 .314 0v6.949a.157.157 0 0 1-.157.157Z"/><path d="M13.486 13.484a.157.157 0 0 1-.111-.268l2.457-2.458a.157.157 0 1 1 .222.222l-2.457 2.457a.157.157 0 0 1-.111.046Z"/><path d="M13.486 13.484a.157.157 0 0 1-.152-.198l.899-3.356a.157.157 0 0 1 .303.081l-.899 3.356a.157.157 0 0 1-.151.116Z"/><path d="M13.486 13.484a.157.157 0 0 1-.152-.116l-.899-3.356a.157.157 0 0 1 .303-.081l.899 3.356a.157.157 0 0 1-.152.198Z"/><path d="M13.486 13.484a.158.158 0 0 1-.111-.046l-2.456-2.457a.157.157 0 0 1 .222-.222l2.457 2.456a.157.157 0 0 1-.111.268Z"/><path d="M13.486 13.484a.157.157 0 0 1-.136-.079L9.876 7.388a.157.157 0 0 1 .272-.157l3.474 6.017a.157.157 0 0 1-.059.214.152.152 0 0 1-.077.021Zm0-6.949a.491.491 0 1 1 .491-.491.491.491 0 0 1-.491.491Zm0-.667a.177.177 0 1 0 .177.177.177.177 0 0 0-.177-.177Zm1.066 4.103a.167.167 0 0 1-.167.167.167.167 0 0 1-.167-.167.167.167 0 0 1 .334 0zm-1.798 0a.167.167 0 0 1-.167.167.167.167 0 0 1-.167-.167.167.167 0 0 1 .334 0z"/></svg>